<svg width="121" height="29" viewBox="0 0 121 29" fill="none" xmlns="http://www.w3.org/2000/svg">
<g clip-path="url(#clip0_429_9088)">
<g clip-path="url(#clip1_429_9088)">
<path d="M14.378 3.30943L16.918 9.15943C16.9809 9.30464 17.0839 9.42886 17.215 9.51744C17.3462 9.60603 17.4999 9.65529 17.658 9.65943L22.798 9.76943C22.9653 9.77243 23.1276 9.82652 23.2633 9.92444C23.3989 10.0224 23.5013 10.1594 23.5569 10.3172C23.6124 10.475 23.6183 10.646 23.5738 10.8073C23.5293 10.9686 23.4366 11.1124 23.308 11.2194L18.828 14.9994C18.7039 15.1007 18.6122 15.2362 18.5643 15.389C18.5163 15.5418 18.5141 15.7054 18.558 15.8594L20.038 21.0494C20.0849 21.2098 20.0816 21.3806 20.0287 21.539C19.9758 21.6974 19.8758 21.8359 19.7421 21.936C19.6083 22.036 19.4472 22.0928 19.2803 22.0988C19.1134 22.1048 18.9486 22.0596 18.808 21.9694L14.078 18.9094C13.9444 18.8217 13.7879 18.7749 13.628 18.7749C13.4681 18.7749 13.3117 18.8217 13.178 18.9094L8.38803 22.0094C8.24809 22.0981 8.08482 22.1428 7.91923 22.1379C7.75365 22.133 7.59332 22.0786 7.45888 21.9819C7.32444 21.8851 7.22205 21.7503 7.16487 21.5948C7.10769 21.4393 7.09834 21.2703 7.13803 21.1094L8.49803 15.8394C8.53806 15.6915 8.53585 15.5354 8.49167 15.3887C8.44748 15.242 8.36308 15.1106 8.24803 15.0094L3.88803 11.2094C3.76261 11.1009 3.67304 10.957 3.63112 10.7965C3.58921 10.6361 3.59692 10.4667 3.65324 10.3108C3.70956 10.1548 3.81184 10.0196 3.9466 9.92292C4.08135 9.82628 4.24224 9.77276 4.40803 9.76943L9.60803 9.65943C9.7662 9.65529 9.9199 9.60603 10.051 9.51744C10.1821 9.42886 10.2852 9.30464 10.348 9.15943L12.888 3.30943C12.9536 3.16694 13.0586 3.04624 13.1906 2.96162C13.3227 2.87701 13.4762 2.83203 13.633 2.83203C13.7899 2.83203 13.9434 2.87701 14.0754 2.96162C14.2075 3.04624 14.3125 3.16694 14.378 3.30943Z" fill="#E14D2A"/>
</g>
<g clip-path="url(#clip2_429_9088)">
<path d="M38.378 3.30943L40.918 9.15943C40.9809 9.30464 41.0839 9.42886 41.215 9.51744C41.3462 9.60603 41.4999 9.65529 41.658 9.65943L46.798 9.76943C46.9653 9.77243 47.1276 9.82652 47.2633 9.92444C47.3989 10.0224 47.5013 10.1594 47.5569 10.3172C47.6124 10.475 47.6183 10.646 47.5738 10.8073C47.5293 10.9686 47.4366 11.1124 47.308 11.2194L42.828 14.9994C42.7039 15.1007 42.6122 15.2362 42.5643 15.389C42.5163 15.5418 42.5141 15.7054 42.558 15.8594L44.038 21.0494C44.0849 21.2098 44.0816 21.3806 44.0287 21.539C43.9758 21.6974 43.8758 21.8359 43.7421 21.936C43.6083 22.036 43.4472 22.0928 43.2803 22.0988C43.1134 22.1048 42.9486 22.0596 42.808 21.9694L38.078 18.9094C37.9444 18.8217 37.7879 18.7749 37.628 18.7749C37.4681 18.7749 37.3117 18.8217 37.178 18.9094L32.388 22.0094C32.2481 22.0981 32.0848 22.1428 31.9192 22.1379C31.7536 22.133 31.5933 22.0786 31.4589 21.9819C31.3244 21.8851 31.222 21.7503 31.1649 21.5948C31.1077 21.4393 31.0983 21.2703 31.138 21.1094L32.498 15.8394C32.5381 15.6915 32.5359 15.5354 32.4917 15.3887C32.4475 15.242 32.3631 15.1106 32.248 15.0094L27.888 11.2094C27.7626 11.1009 27.673 10.957 27.6311 10.7965C27.5892 10.6361 27.5969 10.4667 27.6532 10.3108C27.7096 10.1548 27.8118 10.0196 27.9466 9.92292C28.0813 9.82628 28.2422 9.77276 28.408 9.76943L33.608 9.65943C33.7662 9.65529 33.9199 9.60603 34.051 9.51744C34.1821 9.42886 34.2852 9.30464 34.348 9.15943L36.888 3.30943C36.9536 3.16694 37.0586 3.04624 37.1906 2.96162C37.3227 2.87701 37.4762 2.83203 37.633 2.83203C37.7899 2.83203 37.9434 2.87701 38.0754 2.96162C38.2075 3.04624 38.3125 3.16694 38.378 3.30943Z" fill="#E14D2A"/>
</g>
<g clip-path="url(#clip3_429_9088)">
<path d="M62.378 3.30943L64.918 9.15943C64.9809 9.30464 65.0839 9.42886 65.215 9.51744C65.3462 9.60603 65.4999 9.65529 65.658 9.65943L70.798 9.76943C70.9653 9.77243 71.1276 9.82652 71.2633 9.92444C71.3989 10.0224 71.5013 10.1594 71.5569 10.3172C71.6124 10.475 71.6183 10.646 71.5738 10.8073C71.5293 10.9686 71.4366 11.1124 71.308 11.2194L66.828 14.9994C66.7039 15.1007 66.6122 15.2362 66.5643 15.389C66.5163 15.5418 66.5141 15.7054 66.558 15.8594L68.038 21.0494C68.0849 21.2098 68.0816 21.3806 68.0287 21.539C67.9758 21.6974 67.8758 21.8359 67.7421 21.936C67.6083 22.036 67.4472 22.0928 67.2803 22.0988C67.1134 22.1048 66.9486 22.0596 66.808 21.9694L62.078 18.9094C61.9444 18.8217 61.7879 18.7749 61.628 18.7749C61.4681 18.7749 61.3117 18.8217 61.178 18.9094L56.388 22.0094C56.2481 22.0981 56.0848 22.1428 55.9192 22.1379C55.7536 22.133 55.5933 22.0786 55.4589 21.9819C55.3244 21.8851 55.222 21.7503 55.1649 21.5948C55.1077 21.4393 55.0983 21.2703 55.138 21.1094L56.498 15.8394C56.5381 15.6915 56.5359 15.5354 56.4917 15.3887C56.4475 15.242 56.3631 15.1106 56.248 15.0094L51.888 11.2094C51.7626 11.1009 51.673 10.957 51.6311 10.7965C51.5892 10.6361 51.5969 10.4667 51.6532 10.3108C51.7096 10.1548 51.8118 10.0196 51.9466 9.92292C52.0813 9.82628 52.2422 9.77276 52.408 9.76943L57.608 9.65943C57.7662 9.65529 57.9199 9.60603 58.051 9.51744C58.1821 9.42886 58.2852 9.30464 58.348 9.15943L60.888 3.30943C60.9536 3.16694 61.0586 3.04624 61.1906 2.96162C61.3227 2.87701 61.4762 2.83203 61.633 2.83203C61.7899 2.83203 61.9434 2.87701 62.0754 2.96162C62.2075 3.04624 62.3125 3.16694 62.378 3.30943Z" fill="#E14D2A"/>
</g>
<g clip-path="url(#clip4_429_9088)">
<path d="M86.378 3.30943L88.918 9.15943C88.9809 9.30464 89.0839 9.42886 89.215 9.51744C89.3462 9.60603 89.4999 9.65529 89.658 9.65943L94.798 9.76943C94.9653 9.77243 95.1276 9.82652 95.2633 9.92444C95.3989 10.0224 95.5013 10.1594 95.5569 10.3172C95.6124 10.475 95.6183 10.646 95.5738 10.8073C95.5293 10.9686 95.4366 11.1124 95.308 11.2194L90.828 14.9994C90.7039 15.1007 90.6122 15.2362 90.5643 15.389C90.5163 15.5418 90.5141 15.7054 90.558 15.8594L92.038 21.0494C92.0849 21.2098 92.0816 21.3806 92.0287 21.539C91.9758 21.6974 91.8758 21.8359 91.7421 21.936C91.6083 22.036 91.4472 22.0928 91.2803 22.0988C91.1134 22.1048 90.9486 22.0596 90.808 21.9694L86.078 18.9094C85.9444 18.8217 85.7879 18.7749 85.628 18.7749C85.4681 18.7749 85.3117 18.8217 85.178 18.9094L80.388 22.0094C80.2481 22.0981 80.0848 22.1428 79.9192 22.1379C79.7536 22.133 79.5933 22.0786 79.4589 21.9819C79.3244 21.8851 79.222 21.7503 79.1649 21.5948C79.1077 21.4393 79.0983 21.2703 79.138 21.1094L80.498 15.8394C80.5381 15.6915 80.5359 15.5354 80.4917 15.3887C80.4475 15.242 80.3631 15.1106 80.248 15.0094L75.888 11.2094C75.7626 11.1009 75.673 10.957 75.6311 10.7965C75.5892 10.6361 75.5969 10.4667 75.6532 10.3108C75.7096 10.1548 75.8118 10.0196 75.9466 9.92292C76.0813 9.82628 76.2422 9.77276 76.408 9.76943L81.608 9.65943C81.7662 9.65529 81.9199 9.60603 82.051 9.51744C82.1821 9.42886 82.2852 9.30464 82.348 9.15943L84.888 3.30943C84.9536 3.16694 85.0586 3.04624 85.1906 2.96162C85.3227 2.87701 85.4762 2.83203 85.633 2.83203C85.7899 2.83203 85.9434 2.87701 86.0754 2.96162C86.2075 3.04624 86.3125 3.16694 86.378 3.30943Z" fill="#E14D2A"/>
</g>
<g clip-path="url(#clip5_429_9088)">
<path d="M110.378 3.30943L112.918 9.15943C112.981 9.30464 113.084 9.42886 113.215 9.51744C113.346 9.60603 113.5 9.65529 113.658 9.65943L118.798 9.76943C118.965 9.77243 119.128 9.82652 119.263 9.92444C119.399 10.0224 119.501 10.1594 119.557 10.3172C119.612 10.475 119.618 10.646 119.574 10.8073C119.529 10.9686 119.437 11.1124 119.308 11.2194L114.828 14.9994C114.704 15.1007 114.612 15.2362 114.564 15.389C114.516 15.5418 114.514 15.7054 114.558 15.8594L116.038 21.0494C116.085 21.2098 116.082 21.3806 116.029 21.539C115.976 21.6974 115.876 21.8359 115.742 21.936C115.608 22.036 115.447 22.0928 115.28 22.0988C115.113 22.1048 114.949 22.0596 114.808 21.9694L110.078 18.9094C109.944 18.8217 109.788 18.7749 109.628 18.7749C109.468 18.7749 109.312 18.8217 109.178 18.9094L104.388 22.0094C104.248 22.0981 104.085 22.1428 103.919 22.1379C103.754 22.133 103.593 22.0786 103.459 21.9819C103.324 21.8851 103.222 21.7503 103.165 21.5948C103.108 21.4393 103.098 21.2703 103.138 21.1094L104.498 15.8394C104.538 15.6915 104.536 15.5354 104.492 15.3887C104.447 15.242 104.363 15.1106 104.248 15.0094L99.888 11.2094C99.7626 11.1009 99.673 10.957 99.6311 10.7965C99.5892 10.6361 99.5969 10.4667 99.6532 10.3108C99.7096 10.1548 99.8118 10.0196 99.9466 9.92292C100.081 9.82628 100.242 9.77276 100.408 9.76943L105.608 9.65943C105.766 9.65529 105.92 9.60603 106.051 9.51744C106.182 9.42886 106.285 9.30464 106.348 9.15943L108.888 3.30943C108.954 3.16694 109.059 3.04624 109.191 2.96162C109.323 2.87701 109.476 2.83203 109.633 2.83203C109.79 2.83203 109.943 2.87701 110.075 2.96162C110.207 3.04624 110.313 3.16694 110.378 3.30943Z" fill="#E14D2A"/>
</g>
</g>
<defs>
<clipPath id="clip0_429_9088">
<rect width="120" height="28" fill="white" transform="translate(0.60791 0.5)"/>
</clipPath>
<clipPath id="clip1_429_9088">
<rect width="24" height="24" fill="white" transform="translate(0.60791 0.5)"/>
</clipPath>
<clipPath id="clip2_429_9088">
<rect width="24" height="24" fill="white" transform="translate(24.6079 0.5)"/>
</clipPath>
<clipPath id="clip3_429_9088">
<rect width="24" height="24" fill="white" transform="translate(48.6079 0.5)"/>
</clipPath>
<clipPath id="clip4_429_9088">
<rect width="24" height="24" fill="white" transform="translate(72.6079 0.5)"/>
</clipPath>
<clipPath id="clip5_429_9088">
<rect width="24" height="24" fill="white" transform="translate(96.6079 0.5)"/>
</clipPath>
</defs>
</svg>
