<svg width="21" height="21" viewBox="0 0 21 21" fill="none" xmlns="http://www.w3.org/2000/svg">
<path d="M18.7743 17.5433L14.9598 13.7287C15.9204 12.5118 16.4994 10.9799 16.4994 9.31342C16.4994 5.37454 13.295 2.17017 9.35614 2.17017C5.41727 2.17017 2.21289 5.37454 2.21289 9.31342C2.21289 13.2523 5.41727 16.4567 9.35614 16.4567C11.0235 16.4567 12.5546 15.8785 13.7715 14.9171L17.586 18.7316C17.7499 18.8955 17.965 18.9778 18.1802 18.9778C18.3953 18.9778 18.6104 18.8955 18.7743 18.7316C19.1029 18.403 19.1029 17.8718 18.7743 17.5433ZM3.89366 9.31342C3.89366 6.30149 6.34421 3.85093 9.35614 3.85093C12.3681 3.85093 14.8186 6.30149 14.8186 9.31342C14.8186 12.3253 12.3681 14.7759 9.35614 14.7759C6.34421 14.7759 3.89366 12.3253 3.89366 9.31342Z" fill="#001253"/>
</svg>
