<svg width="38" height="39" viewBox="0 0 38 39" fill="none" xmlns="http://www.w3.org/2000/svg">
<path d="M18.8604 10.5225L27.9804 19.6426L15.4721 32.1666C14.8863 32.7524 14.1421 33.1323 13.3346 33.2748L5.82959 34.5257C5.73459 34.5416 5.65545 34.5416 5.56045 34.5416C5.14879 34.5416 4.73708 34.3673 4.43625 34.0665C4.07208 33.7023 3.89795 33.18 3.97712 32.6734L5.22792 25.1684C5.37042 24.3609 5.75044 23.6166 6.33627 23.0307L18.8604 10.5225ZM32.1446 6.35817C30.9254 5.12317 29.3104 4.45825 27.5846 4.45825C25.8587 4.45825 24.2437 5.12317 23.0246 6.35817L21.1088 8.27395L30.2288 17.394L32.1446 15.4782C33.3796 14.259 34.0446 12.6442 34.0446 10.9184C34.0446 9.19254 33.3796 7.57734 32.1446 6.35817Z" fill="#231F20"/>
</svg>
