<svg width="36" height="36" viewBox="0 0 36 36" fill="none" xmlns="http://www.w3.org/2000/svg">
<path d="M35.3196 4.76583C34.0323 5.46018 32.6542 5.93788 31.2017 6.15453C32.6837 5.06052 33.8168 3.33004 34.3571 1.26852C32.967 2.26429 31.4292 2.98555 29.794 3.39328C28.4903 1.67625 26.6265 0.595703 24.5582 0.595703C20.5934 0.595703 17.3799 4.54784 17.3799 9.41904C17.3799 10.1201 17.4489 10.7929 17.5681 11.4308C11.6039 11.0876 6.31667 7.56206 2.78057 2.23603C2.15932 3.53323 1.80604 5.04034 1.80604 6.68067C1.80604 9.75007 3.07588 12.4413 4.99541 14.0238C3.82182 13.9821 2.71713 13.5824 1.74916 12.9244V13.0307C1.74916 17.3112 4.22104 20.8798 7.50229 21.6926C6.90401 21.8877 6.26526 22.0007 5.61666 22.0007C5.1562 22.0007 4.71651 21.9456 4.27792 21.846C5.20104 25.35 7.84354 27.9014 10.9935 27.9781C8.54463 30.3396 5.44057 31.7472 2.09588 31.7472C1.52604 31.7472 0.95729 31.7135 0.386353 31.6288C3.57682 34.1317 7.3426 35.5957 11.4103 35.5957C24.6085 35.5957 31.8207 22.1461 31.8207 10.4982C31.8207 10.1268 31.8207 9.74872 31.7978 9.36925C33.2054 8.1353 34.4239 6.57167 35.3864 4.79947L35.3196 4.76583Z" fill="#231F20"/>
</svg>
