<svg width="111" height="110" viewBox="0 0 111 110" fill="none" xmlns="http://www.w3.org/2000/svg">
<g clip-path="url(#clip0_557_1232)">
<path d="M55.8864 109.684C86.0876 109.684 110.57 85.2011 110.57 54.9999C110.57 24.7988 86.0876 0.315918 55.8864 0.315918C25.6853 0.315918 1.20239 24.7988 1.20239 54.9999C1.20239 85.2011 25.6853 109.684 55.8864 109.684Z" fill="#F5EEDC" stroke="#231F20" stroke-miterlimit="10"/>
<path d="M92.7427 57.0665C90.5877 57.0285 89.1847 57.7806 88.2936 58.6148C89.646 45.097 83.2695 32.78 72.6651 26.138C76.0461 24.1726 76.4695 20.9559 74.3777 18.8641C74.561 21.3856 71.18 23.0288 70.0488 21.9291C72.9368 19.7678 71.4896 15.0786 68.2477 13.8147C68.6079 17.6002 68.6521 21.7269 60.999 19.06C52.063 15.9507 47.298 19.4708 46.4891 22.005C34.5133 25.0195 24.7368 34.5558 21.716 47.6059C21.0967 46.6074 20.0287 45.5836 18.1328 44.9896C13.2982 43.4792 10.1005 49.5966 12.0216 53.9698C13.728 57.8438 18.2402 59.1456 20.8312 57.5025C21.7034 73.0362 33.4958 84.7529 49.4656 87.3376C65.4923 89.9287 80.4256 82.4652 86.107 67.8983C87.946 70.4578 92.8122 70.7422 95.7255 67.5192C98.9233 63.9738 97.8173 57.1612 92.749 57.0728L92.7427 57.0665Z" fill="#231F20"/>
<path d="M74.5167 44.6105C74.5167 41.1537 72.7725 39.3715 69.3978 39.3715C66.6171 39.3715 64.0766 41.4381 61.9343 44.0544C61.9343 41.2737 60.4239 38.9734 57.8455 38.9734C54.5529 38.9734 52.1704 41.6719 48.9537 45.7607L51.1782 38.9292C51.2983 38.531 51.1403 37.8169 50.3819 37.8169C50.2239 37.8169 50.066 37.8548 49.908 37.9749C49.3518 38.373 48.6377 38.847 47.9236 39.3652C44.5868 41.7856 40.4222 44.7622 36.7694 44.7622C34.1467 44.7622 32.4783 43.296 32.4783 40.3132C32.4783 39.8392 32.1624 39.4031 31.6441 39.4031C31.246 39.4031 30.8479 39.7191 30.81 40.1173C30.4118 43.9659 33.0724 46.4306 36.7631 46.4306C41.408 46.4306 45.4968 43.2139 48.7957 40.8314L45.6991 50.2793C45.6169 50.4373 42.2043 55.7584 41.9642 56.0744C38.4694 60.6372 36.3649 64.094 36.327 66.3186C36.327 67.7089 36.9653 68.8211 38.4315 68.8211C41.0541 68.8211 42.1221 66.6788 44.2266 60.1632L47.2032 51.0313C50.224 46.6644 54.4708 40.6291 57.7633 40.6291C59.5518 40.6291 60.2659 42.2596 60.2659 44.2819C60.2659 45.2362 60.07 46.3864 59.6718 47.7388C57.8455 53.8941 55.5009 60.9974 53.2384 67.355C53.0804 67.8732 53.3964 68.4672 54.0347 68.4672C54.3949 68.4672 54.7109 68.265 54.831 67.9111C58.4458 57.5469 58.9198 56.0428 61.5425 47.3027C63.451 44.3261 66.5034 40.9135 69.4041 40.9135C71.7487 40.9135 72.9747 41.9879 72.9747 44.6042C72.9747 47.2205 71.7866 50.2793 70.1562 54.7662C68.4498 59.4933 64.7149 69.4531 64.7149 72.3159C64.7149 74.8185 66.3454 76.6449 69.0818 76.6449C69.5179 76.6449 69.8781 76.2847 69.8781 75.8549C69.8781 75.4252 69.5179 75.1029 69.0818 75.1029C67.5335 75.1029 66.3012 74.1107 66.3012 72.3222C66.3012 69.8639 69.916 59.9736 71.6223 55.3287C73.2907 50.7216 74.5989 47.467 74.523 44.6105H74.5167ZM42.634 59.6576C40.8898 65.0989 40.0556 67.1212 38.4251 67.1212C38.1471 67.1212 37.9891 66.881 37.9891 66.4829C38.027 64.1004 39.7333 62.432 43.3482 57.035C43.4788 56.8496 43.5715 56.7043 43.6262 56.5989L42.634 59.6576Z" fill="#F5EEDC" stroke="#F5EEDC" stroke-miterlimit="10"/>
</g>
<defs>
<clipPath id="clip0_557_1232">
<rect width="110" height="110" fill="white" transform="translate(0.886353)"/>
</clipPath>
</defs>
</svg>
