<svg width="50" height="36" viewBox="0 0 50 36" fill="none" xmlns="http://www.w3.org/2000/svg">
<g clip-path="url(#clip0_557_1221)">
<path d="M47.3864 18.0957C47.3864 8.4306 39.5515 0.595703 29.8864 0.595703C20.2212 0.595703 12.3864 8.4306 12.3864 18.0957C12.3864 26.8311 18.7855 34.0703 27.152 35.3828V23.1547H22.7084V18.0957H27.152V14.2399C27.152 9.85466 29.7646 7.43164 33.7619 7.43164C35.6767 7.43164 37.679 7.77362 37.679 7.77362V12.0801H35.4725C33.2989 12.0801 32.6207 13.429 32.6207 14.813V18.0957H37.4741L36.6982 23.1547H32.6207V35.3828C40.9872 34.0703 47.3864 26.8311 47.3864 18.0957Z" fill="#231F20"/>
<path d="M36.6983 23.1547L37.4741 18.0957H32.6208V14.813C32.6208 13.429 33.2989 12.0801 35.4726 12.0801H37.679V7.77362C37.679 7.77362 35.6767 7.43164 33.7619 7.43164C29.7646 7.43164 27.152 9.85393 27.152 14.2399V18.0957H22.7085V23.1547H27.152V35.3828C28.9639 35.6673 30.809 35.6673 32.6208 35.3828V23.1547H36.6983Z" fill="#F6F6F6"/>
</g>
<defs>
<clipPath id="clip0_557_1221">
<rect width="49" height="35" fill="white" transform="translate(0.386353 0.595703)"/>
</clipPath>
</defs>
</svg>
