<svg width="36" height="36" viewBox="0 0 36 36" fill="none" xmlns="http://www.w3.org/2000/svg">
<g clip-path="url(#clip0_557_1225)">
<path d="M17.8864 0.595703C27.5507 0.595703 35.3864 8.43133 35.3864 18.0957C35.3864 27.7601 27.5507 35.5957 17.8864 35.5957C8.22198 35.5957 0.386353 27.7601 0.386353 18.0957C0.386353 8.43133 8.22198 0.595703 17.8864 0.595703Z" fill="#231F20"/>
<path d="M18.2393 8.25195C15.4684 8.25195 15.1228 8.26362 14.0349 8.3132C12.9499 8.36279 12.2091 8.53487 11.5601 8.78716C10.8893 9.0482 10.3205 9.39674 9.75469 9.96404C9.23573 10.4731 8.83409 11.0892 8.57781 11.7695C8.32552 12.4184 8.15344 13.1592 8.10385 14.2442C8.05427 15.3322 8.0426 15.6792 8.0426 18.4486C8.0426 21.218 8.05427 21.5651 8.10385 22.6515C8.15344 23.738 8.32552 24.4788 8.57781 25.1278C8.83885 25.7986 9.18739 26.3674 9.75469 26.9332C10.3205 27.5005 10.8893 27.849 11.5601 28.1086C12.2091 28.3609 12.9499 28.533 14.0349 28.5826C15.1228 28.6322 15.4699 28.6438 18.2393 28.6438C21.0086 28.6438 21.3557 28.6322 22.4422 28.5826C23.5286 28.533 24.2695 28.3609 24.9184 28.1086C25.5985 27.8526 26.2146 27.4515 26.7239 26.9332C27.2911 26.3659 27.6397 25.7972 27.8993 25.1278C28.1516 24.4788 28.3236 23.738 28.3732 22.6515C28.4228 21.5651 28.4345 21.218 28.4345 18.4486C28.4345 15.6778 28.4228 15.3322 28.3732 14.2442C28.3236 13.1592 28.1516 12.4184 27.8993 11.7695C27.6433 11.0894 27.2422 10.4733 26.7239 9.96404C26.2148 9.44515 25.5986 9.04353 24.9184 8.78716C24.2695 8.53487 23.5286 8.36279 22.4422 8.3132C21.3557 8.26362 21.0086 8.25195 18.2393 8.25195ZM18.2393 10.0895C20.962 10.0895 21.2843 10.0997 22.3591 10.1478C23.3536 10.1945 23.8932 10.3607 24.252 10.4992C24.7289 10.6845 25.0686 10.9061 25.4245 11.262C25.7818 11.6192 26.002 11.959 26.1872 12.4345C26.3272 12.7947 26.4934 13.3342 26.5386 14.3274C26.5882 15.4036 26.597 15.7259 26.597 18.4486C26.597 21.1713 26.5882 21.4936 26.5386 22.5684C26.4934 23.563 26.3272 24.1026 26.1886 24.4613C26.002 24.9382 25.7803 25.278 25.4245 25.6338C25.0955 25.9724 24.6949 26.233 24.252 26.3965C23.8932 26.5365 23.3536 26.7028 22.3591 26.7465C21.2843 26.7976 20.962 26.8078 18.2393 26.8078C15.5166 26.8078 15.1943 26.7976 14.1195 26.748C13.1249 26.7028 12.5853 26.5365 12.2251 26.398C11.7821 26.2341 11.3814 25.973 11.0526 25.6338C10.714 25.3049 10.4534 24.9042 10.2899 24.4613C10.1514 24.1026 9.98364 23.563 9.93989 22.5684C9.89031 21.4936 9.8801 21.1713 9.8801 18.4486C9.8801 15.7259 9.89031 15.4036 9.93844 14.3274C9.9851 13.3342 10.1514 12.7947 10.2899 12.4345C10.4751 11.959 10.6968 11.6178 11.0526 11.262C11.4099 10.9061 11.7497 10.6845 12.2251 10.4992C12.5853 10.3607 13.1249 10.193 14.1195 10.1492C15.1943 10.0997 15.5166 10.0895 18.2393 10.0895Z" fill="#F6F6F6"/>
<path d="M18.2393 21.8464C17.3381 21.8464 16.4739 21.4884 15.8366 20.8512C15.1994 20.214 14.8414 19.3497 14.8414 18.4485C14.8414 17.5473 15.1994 16.6831 15.8366 16.0458C16.4739 15.4086 17.3381 15.0506 18.2393 15.0506C19.1405 15.0506 20.0048 15.4086 20.642 16.0458C21.2792 16.6831 21.6372 17.5473 21.6372 18.4485C21.6372 19.3497 21.2792 20.214 20.642 20.8512C20.0048 21.4884 19.1405 21.8464 18.2393 21.8464ZM18.2393 13.2131C17.5518 13.2131 16.871 13.3485 16.2358 13.6116C15.6006 13.8747 15.0235 14.2604 14.5373 14.7465C14.0512 15.2327 13.6655 15.8098 13.4024 16.445C13.1393 17.0802 13.0039 17.761 13.0039 18.4485C13.0039 19.136 13.1393 19.8168 13.4024 20.452C13.6655 21.0872 14.0512 21.6644 14.5373 22.1505C15.0235 22.6367 15.6006 23.0223 16.2358 23.2854C16.871 23.5485 17.5518 23.6839 18.2393 23.6839C19.6278 23.6839 20.9595 23.1323 21.9413 22.1505C22.9232 21.1687 23.4747 19.837 23.4747 18.4485C23.4747 17.06 22.9232 15.7283 21.9413 14.7465C20.9595 13.7647 19.6278 13.2131 18.2393 13.2131ZM24.9054 13.006C24.9054 13.3305 24.7765 13.6417 24.547 13.8712C24.3175 14.1006 24.0063 14.2296 23.6818 14.2296C23.3573 14.2296 23.0461 14.1006 22.8166 13.8712C22.5872 13.6417 22.4583 13.3305 22.4583 13.006C22.4583 12.6815 22.5872 12.3703 22.8166 12.1408C23.0461 11.9114 23.3573 11.7825 23.6818 11.7825C24.0063 11.7825 24.3175 11.9114 24.547 12.1408C24.7765 12.3703 24.9054 12.6815 24.9054 13.006Z" fill="#F6F6F6"/>
</g>
<defs>
<clipPath id="clip0_557_1225">
<rect width="35" height="35" fill="white" transform="translate(0.386353 0.595703)"/>
</clipPath>
</defs>
</svg>
