<svg width="207" height="86" viewBox="0 0 207 86" fill="none" xmlns="http://www.w3.org/2000/svg">
<path d="M27.0842 48.1365C23.2862 59.9501 21.4747 64.3545 17.9355 64.3545C17.3342 64.3545 16.9841 63.8373 16.9841 62.9701C17.0678 57.7974 20.7821 54.1765 28.6369 42.4466C28.9262 42.0459 29.1266 41.7315 29.2382 41.5033L27.0842 48.1442V48.1365ZM96.3771 15.4495C96.3771 7.94148 92.5791 4.06194 85.2419 4.06194C79.1985 4.06194 73.6804 8.55003 69.0223 14.24C69.0223 8.20772 65.7418 3.20235 60.1323 3.20235C52.9701 3.20235 47.7945 9.0673 40.8073 17.9522L45.6405 3.11868C45.8993 2.25909 45.5568 0.707275 43.9127 0.707275C43.5702 0.707275 43.2201 0.790951 42.8776 1.05719C41.6674 1.91678 40.1147 2.95132 38.562 4.07715C31.3161 9.34115 22.2511 15.8071 14.3125 15.8071C8.61932 15.8071 4.99636 12.6197 4.99636 6.14624C4.99636 5.11169 4.30373 4.16083 3.18487 4.16083C2.3248 4.16083 1.45712 4.85306 1.3734 5.71264C0.513325 14.0803 6.29027 19.428 14.3201 19.428C24.4127 19.428 33.3026 12.4448 40.4648 7.26446L33.7365 27.788C33.5614 28.1379 26.1404 39.6928 25.6229 40.3775C18.0268 50.2969 13.4525 57.7974 13.3687 62.6278C13.3687 65.6477 14.7464 68.0591 17.9431 68.0591C23.6363 68.0591 25.9654 63.4037 30.5397 49.2624L37.0093 29.4235C43.5702 19.9376 52.8027 6.83086 59.9649 6.83086C63.8466 6.83086 65.3993 10.3681 65.3993 14.7649C65.3993 16.834 64.9655 19.3367 64.1054 22.2653C60.1323 35.6307 55.0404 51.0652 50.1235 64.8718C49.781 65.99 50.466 67.2832 51.8513 67.2832C52.6276 67.2832 53.3202 66.8496 53.579 66.0737C61.4338 43.5648 62.469 40.2862 68.1622 21.3145C72.3027 14.8486 78.9473 7.43181 85.2495 7.43181C90.3414 7.43181 93.0129 9.75953 93.0129 15.4495C93.0129 21.1395 90.4251 27.7804 86.8859 37.5249C83.1716 47.7866 75.0656 69.436 75.0656 75.6432C75.0656 81.0746 78.6048 85.0454 84.5568 85.0454C85.5082 85.0454 86.2846 84.2695 86.2846 83.3263C86.2846 82.383 85.5082 81.6908 84.5568 81.6908C81.1927 81.6908 78.5135 79.5304 78.5135 75.6508C78.5135 70.3032 86.3683 48.8288 90.075 38.742C93.698 28.7388 96.5446 21.6644 96.3771 15.4571" fill="#F6F6F6"/>
<path d="M27.0842 48.1365C23.2862 59.9501 21.4747 64.3545 17.9355 64.3545C17.3342 64.3545 16.9841 63.8373 16.9841 62.9701C17.0678 57.7974 20.7821 54.1765 28.6369 42.4466C28.9262 42.0459 29.1266 41.7315 29.2382 41.5033L27.0842 48.1442V48.1365ZM96.3771 15.4495C96.3771 7.94148 92.5791 4.06194 85.2419 4.06194C79.1985 4.06194 73.6804 8.55003 69.0223 14.24C69.0223 8.20772 65.7418 3.20235 60.1323 3.20235C52.9701 3.20235 47.7945 9.0673 40.8073 17.9522L45.6405 3.11868C45.8993 2.25909 45.5568 0.707275 43.9127 0.707275C43.5702 0.707275 43.2201 0.790951 42.8776 1.05719C41.6674 1.91678 40.1147 2.95132 38.562 4.07715C31.3161 9.34115 22.2511 15.8071 14.3125 15.8071C8.61932 15.8071 4.99636 12.6197 4.99636 6.14624C4.99636 5.11169 4.30373 4.16083 3.18487 4.16083C2.3248 4.16083 1.45712 4.85306 1.3734 5.71264C0.513325 14.0803 6.29027 19.428 14.3201 19.428C24.4127 19.428 33.3026 12.4448 40.4648 7.26446L33.7365 27.788C33.5614 28.1379 26.1404 39.6928 25.6229 40.3775C18.0268 50.2969 13.4525 57.7974 13.3687 62.6278C13.3687 65.6477 14.7464 68.0591 17.9431 68.0591C23.6363 68.0591 25.9654 63.4037 30.5397 49.2624L37.0093 29.4235C43.5702 19.9376 52.8027 6.83086 59.9649 6.83086C63.8466 6.83086 65.3993 10.3681 65.3993 14.7649C65.3993 16.834 64.9655 19.3367 64.1054 22.2653C60.1323 35.6307 55.0404 51.0652 50.1235 64.8718C49.781 65.99 50.466 67.2832 51.8513 67.2832C52.6276 67.2832 53.3202 66.8496 53.579 66.0737C61.4338 43.5648 62.469 40.2862 68.1622 21.3145C72.3027 14.8486 78.9473 7.43181 85.2495 7.43181C90.3414 7.43181 93.0129 9.75954 93.0129 15.4495C93.0129 21.1395 90.4251 27.7804 86.8859 37.5249C83.1716 47.7866 75.0656 69.436 75.0656 75.6432C75.0656 81.0746 78.6048 85.0454 84.5568 85.0454C85.5082 85.0454 86.2846 84.2695 86.2846 83.3263C86.2846 82.383 85.5082 81.6908 84.5568 81.6908C81.1927 81.6908 78.5135 79.5304 78.5135 75.6508C78.5135 70.3032 86.3683 48.8288 90.075 38.742C93.698 28.7389 96.5446 21.6644 96.3771 15.4571V15.4495Z" stroke="#F6F6F6" stroke-miterlimit="10"/>
<path d="M106.98 22.6076C108.616 22.6076 109.91 21.3144 109.91 19.6713C109.91 18.0282 108.616 16.7427 106.98 16.7427C105.343 16.7427 103.958 18.0359 103.958 19.6713C103.958 21.3068 105.336 22.6076 106.98 22.6076Z" fill="#F6F6F6"/>
<path d="M106.98 22.6076C108.616 22.6076 109.91 21.3144 109.91 19.6713C109.91 18.0282 108.616 16.7427 106.98 16.7427C105.343 16.7427 103.958 18.0359 103.958 19.6713C103.958 21.3068 105.336 22.6076 106.98 22.6076Z" stroke="#F6F6F6" stroke-miterlimit="10"/>
<path d="M197.409 28.815C197.409 27.6055 197.668 26.0537 198.703 25.0192C199.563 24.1596 200.514 23.9009 200.514 25.1028C200.514 26.997 199.22 29.6746 197.843 31.5687C197.584 30.6179 197.409 29.7583 197.409 28.8074M199.395 35.357C202.067 32.337 204.229 28.5412 204.229 25.0952C204.054 22.6002 202.592 20.6147 200.088 20.6147C196.549 20.6147 193.786 24.4106 193.786 28.8987C193.786 30.8841 194.304 32.7782 195.08 34.5887C194.045 35.6232 193.185 36.5741 192.15 37.776C191.891 38.1259 191.716 38.5519 191.716 38.9018C191.716 39.4191 191.891 40.0201 192.317 40.37C192.66 40.7199 193.177 40.796 193.611 40.796C194.128 40.796 194.646 40.5373 194.989 40.1037C195.506 39.4115 196.107 38.7269 196.716 38.1183C201.291 46.136 202.585 48.6387 202.668 52.4346C202.493 59.5927 197.493 64.1645 190.506 64.1645C185.497 64.1645 181.098 60.4599 181.098 55.1959C181.441 49.9395 184.554 45.9687 189.295 45.9687C191.541 45.9687 193.695 48.1214 193.87 51.0577C193.87 52.0923 194.646 52.8682 195.681 52.8682C196.716 52.8682 197.493 52.0923 197.493 51.0577C197.318 46.311 193.695 42.3478 189.212 42.3478C183.899 42.3478 180.131 45.3677 178.434 50.2894C174.02 59.8666 170.823 64.1645 166.949 64.1645C165.137 64.1645 164.361 63.0387 164.361 60.5436C164.361 58.2159 166.347 51.2327 169.628 42.3478C170.922 38.8942 172.558 34.2388 174.461 29.241C174.895 28.1228 174.027 26.822 172.65 26.822C171.957 26.822 171.272 27.2556 171.013 27.9478C166.522 40.195 163.333 49.3386 160.312 55.3709C157.465 61.2358 153.926 64.1645 150.387 64.1645C147.281 64.1645 145.637 62.354 145.637 58.8168C145.637 56.8238 145.957 55.3709 147.981 49.833C148.004 49.7798 148.035 49.7265 148.058 49.6733C148.088 49.5896 148.111 49.5059 148.134 49.4222C149.625 45.3525 152 39.1757 155.737 29.2334C156.171 28.1152 155.479 26.8144 154.01 26.8144C153.317 26.8144 152.632 27.248 152.373 27.9402C148.598 37.7228 146.117 44.0974 144.534 48.555C139.373 59.6764 136.283 64.1569 132.272 64.1569C130.46 64.1569 129.684 63.031 129.684 60.536C129.684 53.8951 136.412 42.5988 136.412 34.9234C136.412 30.3516 134.517 26.8144 128.299 26.8144C125.452 26.8144 122.773 28.4575 120.276 31.0439L120.969 29.3171C121.403 28.1913 120.535 26.8981 119.241 26.8981C118.465 26.8981 117.772 27.3317 117.514 28.1076C115.634 33.2651 113.099 40.4232 110.45 47.9008C110.382 47.9921 110.321 48.091 110.268 48.1975C107.071 55.272 103.105 64.1493 97.7547 64.1493C95.9433 64.1493 95.1669 63.0234 95.1669 60.5284C95.1669 56.8238 96.7196 52.853 105.092 29.3095C105.61 27.8413 104.491 26.9818 103.364 26.9818C102.672 26.9818 101.987 27.4153 101.728 28.1913C97.9298 38.027 91.8027 53.8038 91.5439 60.5284C91.3689 64.4992 93.6142 67.7702 97.7547 67.7702C100.251 67.7702 102.42 66.728 104.361 64.9784C104.316 65.1077 104.27 65.2371 104.224 65.3588C103.882 66.3933 104.399 67.3442 105.343 67.6865C106.295 67.9451 107.33 67.5191 107.672 66.477L113.601 49.7189C113.601 49.7189 113.617 49.6809 113.632 49.658C113.647 49.62 113.655 49.5744 113.67 49.5363L113.716 49.3994C116.478 42.0663 123.032 30.4277 128.299 30.4277C131.663 30.4277 132.789 32.4131 132.789 34.9082C132.789 42.4086 126.061 52.4118 126.061 60.5208C126.061 64.7502 128.131 67.7626 132.272 67.7626C135.986 67.7626 138.977 65.7163 142.166 60.9087C142.798 65.3968 145.569 67.7626 150.31 67.7626H150.394C154.276 67.7626 158.249 65.1762 160.746 61.639C161.263 65.4348 163.158 67.7626 166.956 67.7626C171.074 67.7626 174.446 65.0925 178.069 58.9233C179.728 64.058 184.691 67.7626 190.513 67.7626C199.228 67.7626 206.131 61.8139 206.306 52.503C206.223 46.6381 203.894 43.6181 199.403 35.3418" fill="#F6F6F6"/>
<path d="M197.409 28.815C197.409 27.6055 197.668 26.0537 198.703 25.0191C199.563 24.1595 200.514 23.9009 200.514 25.1028C200.514 26.9969 199.22 29.6746 197.843 31.5687C197.584 30.6178 197.409 29.7583 197.409 28.8074V28.815ZM199.395 35.3646C202.067 32.3446 204.229 28.5487 204.229 25.1028C204.054 22.6077 202.592 20.6223 200.088 20.6223C196.549 20.6223 193.786 24.4182 193.786 28.9063C193.786 30.8917 194.304 32.7858 195.08 34.5963C194.045 35.6308 193.185 36.5817 192.15 37.7836C191.891 38.1335 191.716 38.5595 191.716 38.9094C191.716 39.4267 191.891 40.0276 192.317 40.3775C192.66 40.7275 193.177 40.8035 193.611 40.8035C194.128 40.8035 194.646 40.5449 194.989 40.1113C195.506 39.4191 196.107 38.7344 196.716 38.1259C201.291 46.1436 202.585 48.6463 202.668 52.4421C202.493 59.6003 197.493 64.172 190.506 64.172C185.497 64.172 181.098 60.4675 181.098 55.2035C181.441 49.9471 184.554 45.9762 189.295 45.9762C191.541 45.9762 193.695 48.129 193.87 51.0653C193.87 52.0998 194.646 52.8757 195.681 52.8757C196.716 52.8757 197.493 52.0998 197.493 51.0653C197.318 46.3186 193.695 42.3553 189.212 42.3553C183.899 42.3553 180.131 45.3753 178.434 50.297C174.02 59.8741 170.823 64.172 166.949 64.172C165.137 64.172 164.361 63.0462 164.361 60.5511C164.361 58.2234 166.347 51.2402 169.628 42.3553C170.922 38.9018 172.558 34.2463 174.461 29.2486C174.895 28.1304 174.027 26.8296 172.65 26.8296C171.957 26.8296 171.272 27.2632 171.013 27.9554C166.522 40.2026 163.333 49.3461 160.312 55.3784C157.465 61.2434 153.926 64.172 150.387 64.172C147.281 64.172 145.637 62.3616 145.637 58.8244C145.637 56.8314 145.957 55.3784 147.981 49.8406C148.004 49.7873 148.035 49.7341 148.058 49.6808C148.088 49.5971 148.111 49.5135 148.134 49.4298C149.625 45.3601 152 39.1832 155.737 29.241C156.171 28.1228 155.479 26.822 154.01 26.822C153.317 26.822 152.632 27.2556 152.373 27.9478C148.598 37.7303 146.117 44.1049 144.534 48.5626C139.373 59.684 136.283 64.1644 132.272 64.1644C130.46 64.1644 129.684 63.0386 129.684 60.5435C129.684 53.9027 136.412 42.6064 136.412 34.931C136.412 30.3592 134.517 26.822 128.299 26.822C125.452 26.822 122.773 28.4651 120.276 31.0514L120.969 29.3247C121.403 28.1988 120.535 26.9056 119.241 26.9056C118.465 26.9056 117.772 27.3392 117.514 28.1151C115.634 33.2727 113.099 40.4308 110.45 47.9084C110.382 47.9997 110.321 48.0986 110.268 48.2051C107.071 55.2795 103.105 64.1568 97.7547 64.1568C95.9433 64.1568 95.1669 63.031 95.1669 60.5359C95.1669 56.8314 96.7196 52.8605 105.092 29.317C105.61 27.8489 104.491 26.9893 103.364 26.9893C102.672 26.9893 101.987 27.4229 101.728 28.1988C97.9298 38.0346 91.8027 53.8114 91.5439 60.5359C91.3689 64.5068 93.6142 67.7777 97.7547 67.7777C100.251 67.7777 102.42 66.7356 104.361 64.986C104.316 65.1153 104.27 65.2446 104.224 65.3663C103.882 66.4009 104.399 67.3517 105.343 67.6941C106.295 67.9527 107.33 67.5267 107.672 66.4846L113.601 49.7265C113.601 49.7265 113.617 49.6884 113.632 49.6656C113.647 49.6276 113.655 49.5819 113.67 49.5439L113.716 49.407C116.478 42.0739 123.032 30.4353 128.299 30.4353C131.663 30.4353 132.789 32.4207 132.789 34.9158C132.789 42.4162 126.061 52.4193 126.061 60.5283C126.061 64.7578 128.131 67.7701 132.272 67.7701C135.986 67.7701 138.977 65.7239 142.166 60.9163C142.798 65.4044 145.569 67.7701 150.31 67.7701H150.394C154.276 67.7701 158.249 65.1838 160.746 61.6465C161.263 65.4424 163.158 67.7701 166.956 67.7701C171.074 67.7701 174.446 65.1001 178.069 58.9309C179.728 64.0656 184.691 67.7701 190.513 67.7701C199.228 67.7701 206.131 61.8215 206.306 52.5106C206.223 46.6457 203.894 43.6257 199.403 35.3494L199.395 35.3646Z" stroke="#F6F6F6" stroke-miterlimit="10"/>
</svg>
