<svg width="39" height="40" viewBox="0 0 39 40" fill="none" xmlns="http://www.w3.org/2000/svg">
<path d="M3.19238 8.82823C3.19238 7.94575 3.90731 7.23242 4.78819 7.23242H25.5337C26.4146 7.23242 27.1295 7.94575 27.1295 8.82823C27.1295 9.71072 26.4146 10.424 25.5337 10.424H4.78819C3.90731 10.424 3.19238 9.71072 3.19238 8.82823ZM33.5128 18.4031H4.78819C3.90731 18.4031 3.19238 19.1164 3.19238 19.9989C3.19238 20.8814 3.90731 21.5947 4.78819 21.5947H33.5128C34.3937 21.5947 35.1086 20.8814 35.1086 19.9989C35.1086 19.1164 34.3937 18.4031 33.5128 18.4031ZM19.1505 29.5738H4.78819C3.90731 29.5738 3.19238 30.2871 3.19238 31.1696C3.19238 32.0521 3.90731 32.7654 4.78819 32.7654H19.1505C20.0314 32.7654 20.7463 32.0521 20.7463 31.1696C20.7463 30.2871 20.0314 29.5738 19.1505 29.5738Z" fill="#F6F6F6"/>
</svg>
