<svg width="88" height="46" viewBox="0 0 88 46" fill="none" xmlns="http://www.w3.org/2000/svg">
<path d="M87.5 35.0113C87.5 40.2467 82.9843 44.4913 77.4145 44.4913H10.5855C5.01565 44.4913 0.5 40.2467 0.5 35.0113V9.57082C0.5 4.33531 5.01565 0.0908203 10.5855 0.0908203H77.4145C82.9843 0.0908203 87.5 4.33531 87.5 9.57082V35.0113Z" fill="#F6F6F6"/>
<path d="M13.2093 10.274H12.1643L9.77858 6.66234V10.274H8.60352V4.38452H9.65174L12.0342 7.98982V4.38452H13.2093V10.274Z" fill="#706F6F"/>
<path d="M18.9462 8.25448C18.9462 8.87219 18.7364 9.3712 18.3169 9.75155C17.8973 10.1319 17.3692 10.3221 16.7327 10.3221C16.0958 10.3221 15.5718 10.1345 15.1609 9.75947C14.733 9.37209 14.5189 8.87043 14.5186 8.25448V4.38452H15.6931V8.21381C15.6931 8.5392 15.7847 8.80104 15.9678 8.99933C16.151 9.19759 16.4059 9.29691 16.7327 9.29726C17.0648 9.29726 17.3224 9.19794 17.5056 8.99933C17.6888 8.8007 17.7803 8.53886 17.7803 8.21381V4.38504H18.9462V8.25448Z" fill="#706F6F"/>
<path d="M24.1268 5.40987H22.5549V10.2698H21.3804V5.40987H19.8086V4.38452H24.1268V5.40987Z" fill="#706F6F"/>
<path d="M29.6384 10.274H28.268L27.1015 7.92539H26.2585V10.274H25.084V4.38452H27.4417C28.0107 4.38452 28.4783 4.54705 28.845 4.87209C29.2117 5.19714 29.3948 5.63542 29.3946 6.18692C29.3946 6.95322 29.0283 7.46881 28.296 7.73363L29.6384 10.274ZM28.2188 6.18849C28.2236 6.08222 28.204 5.97624 28.1616 5.87828C28.1192 5.78034 28.055 5.69285 27.9739 5.6222C27.8053 5.47969 27.5883 5.40426 27.3656 5.41091H26.2585V6.96555H27.3656C27.5889 6.97397 27.8075 6.90029 27.9783 6.75902C28.1388 6.6206 28.2188 6.43148 28.2188 6.18849Z" fill="#706F6F"/>
<path d="M31.7839 10.274H30.6094V4.38452H31.7839V10.274Z" fill="#706F6F"/>
<path d="M35.5852 8.41262H32.9824V7.40894H35.5852V8.41262Z" fill="#706F6F"/>
<path d="M40.6816 8.5373C40.6816 9.12225 40.4506 9.57445 39.9884 9.89387C39.5832 10.1805 39.0707 10.3239 38.4507 10.3239C37.5152 10.3239 36.7829 10.0647 36.2539 9.54626L37.0143 8.80196C37.3523 9.13301 37.8367 9.29852 38.4674 9.29852C39.1771 9.29852 39.5321 9.05588 39.5323 8.5706C39.5323 8.16842 39.2928 7.93423 38.8139 7.86803L38.0874 7.76607C37.0223 7.62273 36.4899 7.07459 36.4903 6.12162C36.4903 5.54865 36.6987 5.10245 37.1159 4.78303C37.4984 4.4851 37.9885 4.3363 38.5862 4.33667C39.3968 4.33667 40.0445 4.56557 40.5293 5.02338L39.7839 5.74285C39.4894 5.47274 39.0771 5.33769 38.5461 5.33769C38.2806 5.33769 38.0659 5.39564 37.9023 5.51149C37.7101 5.64356 37.6139 5.83373 37.6139 6.08199C37.6139 6.45142 37.8619 6.66923 38.3578 6.73545L39.0677 6.83477C40.1432 6.98302 40.6811 7.55053 40.6816 8.5373Z" fill="#706F6F"/>
<path d="M46.0035 8.46376C45.9074 9.04238 45.6635 9.4972 45.272 9.82823C44.8805 10.1593 44.3864 10.3246 43.7893 10.3243C43.1471 10.3243 42.6061 10.1093 42.1668 9.67927C41.9017 9.41972 41.727 9.08058 41.6426 8.66185C41.5978 8.43647 41.5752 7.99275 41.5752 7.33066C41.5752 6.68056 41.5978 6.23667 41.6426 5.99894C41.7218 5.57988 41.8967 5.24091 42.1668 4.98206C42.3784 4.7726 42.6316 4.60742 42.9104 4.49654C43.1893 4.38568 43.4883 4.33142 43.7893 4.33707C44.392 4.33707 44.8864 4.50101 45.272 4.82887C45.6579 5.15674 45.9017 5.61298 46.0035 6.19757H44.8116C44.6767 5.64079 44.3388 5.36239 43.798 5.36239C43.4429 5.36239 43.1695 5.49199 42.9781 5.75119C42.8258 5.96039 42.7497 6.48688 42.7497 7.33066V7.85892C42.7497 7.96456 42.7556 8.07479 42.7671 8.18959C42.8391 8.92914 43.1827 9.29892 43.798 9.29892C44.3331 9.29892 44.6709 9.02054 44.8116 8.46376H46.0035Z" fill="#706F6F"/>
<path d="M51.2595 7.33028C51.2595 7.93143 51.2341 8.37515 51.1834 8.66147C51.1249 9.04687 50.9411 9.40359 50.6592 9.67887C50.4476 9.88828 50.1946 10.0534 49.9158 10.1643C49.6372 10.2752 49.3381 10.3295 49.0373 10.3239C48.395 10.3239 47.8513 10.1089 47.4061 9.67887C47.1416 9.42532 46.9671 9.08618 46.8825 8.66147C46.8373 8.43609 46.8145 7.99235 46.8145 7.33028C46.8145 6.68018 46.8373 6.23627 46.8825 5.99856C46.9613 5.57948 47.1359 5.24053 47.4061 4.98168C47.8515 4.55169 48.3952 4.33667 49.0373 4.33667C49.6791 4.33667 50.2199 4.55169 50.6592 4.98168C50.9241 5.24053 51.0988 5.57948 51.1834 5.99856C51.2341 6.24683 51.2595 6.69074 51.2595 7.33028ZM50.085 7.33028V6.90029C50.085 6.73495 50.0789 6.59125 50.0676 6.47029C49.9997 5.73074 49.6533 5.36097 49.0286 5.36097C48.4263 5.36097 48.0796 5.73074 47.989 6.47029V7.33028C47.9837 7.71061 47.9894 7.99728 48.0064 8.19026C48.0783 8.92983 48.422 9.29961 49.0373 9.29961C49.1967 9.30428 49.3549 9.27048 49.4978 9.20121C49.6406 9.13194 49.7638 9.02928 49.8566 8.90234C50.0089 8.70373 50.085 8.1797 50.085 7.33028Z" fill="#706F6F"/>
<path d="M57.0154 10.274H55.6449L54.4787 7.92539H53.6354V10.274H52.4609V4.38452H54.8186C55.3876 4.38452 55.8552 4.54705 56.2219 4.87209C56.5887 5.19714 56.7716 5.63542 56.7709 6.18692C56.7709 6.95322 56.4049 7.46881 55.6725 7.73363L57.0154 10.274ZM55.596 6.18849C55.6006 6.08222 55.581 5.97624 55.5388 5.87828C55.4964 5.78034 55.4322 5.69285 55.3509 5.6222C55.1823 5.47969 54.9652 5.40426 54.7425 5.41091H53.6354V6.96555H54.7425C54.9659 6.97397 55.1845 6.90029 55.3552 6.75902C55.5153 6.6206 55.5955 6.43148 55.596 6.18849Z" fill="#706F6F"/>
<path d="M61.9489 10.274H57.9854V4.38452H61.9489V5.40987H59.1598V6.7907H61.5347V7.81656H59.1598V9.24707H61.9489V10.274Z" fill="#706F6F"/>
<path d="M36.8183 16.2727H20.9688V41.2115H36.8183V16.2727Z" fill="#95C11F"/>
<path d="M52.6299 16.2727H36.7803V41.2115H52.6299V16.2727Z" fill="#FFDE00"/>
<path d="M68.4434 16.2727H52.5938V41.2115H68.4434V16.2727Z" fill="#F39200"/>
<path d="M68.4092 41.2115H79.1574C81.9194 41.2115 84.1584 39.0022 84.1584 36.2764V21.2082C84.1584 18.4824 81.9194 16.2727 79.1574 16.2727H68.4092V41.2115Z" fill="#DD1E00"/>
<path d="M25.1426 22.9243H29.6074C30.7399 22.935 31.5908 23.2224 32.16 23.7866C32.7357 24.356 33.0237 25.1092 33.0237 26.0458C33.0343 26.5248 32.9171 26.9982 32.6835 27.4193C32.5469 27.6449 32.3703 27.8452 32.1622 28.0104C31.909 28.2246 31.6273 28.4044 31.325 28.5449V28.5772C31.954 28.7421 32.4295 29.0746 32.7512 29.5752C33.0513 30.0874 33.207 30.6687 33.2029 31.2591C33.192 32.2656 32.881 33.0615 32.2696 33.6464C31.6632 34.2584 30.9076 34.5643 30.0026 34.5643H25.1448L25.1426 22.9243ZM26.8865 24.488V27.8349H29.4095C30.0474 27.8349 30.5166 27.6663 30.8172 27.329C31.1225 27.0192 31.2754 26.6286 31.2754 26.1573C31.2754 25.6861 31.1225 25.2872 30.8172 24.9608C30.5166 24.6562 30.0474 24.4976 29.4095 24.4854L26.8865 24.488ZM26.8865 29.4008V32.9068H29.5794C30.2271 32.8963 30.7023 32.7174 31.0049 32.3705C31.3039 32.0343 31.4649 31.6014 31.4568 31.1557C31.4675 30.704 31.3065 30.2646 31.0049 29.9227C30.7045 29.5863 30.2292 29.4128 29.5794 29.4024L26.8865 29.4008Z" fill="#C1D289"/>
<path d="M48.9733 31.3129C48.7215 32.3916 48.2393 33.2204 47.5267 33.7993C46.7944 34.3738 45.9277 34.6607 44.9261 34.6604C44.0204 34.6393 43.2648 34.4159 42.6591 33.99C42.0427 33.58 41.5951 33.1063 41.3162 32.5685C41.2321 32.3924 41.1557 32.2249 41.0874 32.0656C41.0146 31.8636 40.9615 31.6552 40.9293 31.4434C40.8503 30.9747 40.8108 30.0749 40.8105 28.7444C40.8105 27.3928 40.8501 26.4882 40.9293 26.0303C41.0085 25.5725 41.1374 25.2027 41.3162 24.921C41.5955 24.3832 42.0433 23.9043 42.6597 23.4841C43.2653 23.0584 44.0211 22.84 44.9267 22.8291C46.0379 22.84 46.944 23.1723 47.6448 23.826C48.3458 24.4796 48.7882 25.2952 48.9722 26.2729H47.1202C46.9815 25.8097 46.7128 25.3938 46.3446 25.0727C45.9542 24.7585 45.4796 24.5959 44.9206 24.585C44.5091 24.5957 44.1555 24.6782 43.8601 24.8329C43.5774 24.9793 43.3301 25.1839 43.1352 25.4324C42.9086 25.6836 42.758 26.0063 42.6839 26.4007C42.5997 26.8162 42.5577 27.5975 42.5577 28.7444C42.5577 29.8914 42.5999 30.6675 42.6845 31.0724C42.7565 31.4783 42.9068 31.8062 43.1358 32.0567C43.3292 32.3039 43.5782 32.5037 43.8638 32.641C44.1596 32.817 44.5133 32.905 44.9246 32.905C45.9066 32.905 46.6402 32.3743 47.1257 31.3129H48.9733Z" fill="#FFF7BF"/>
<path d="M56.5918 22.9243H60.6242C62.1842 22.935 63.3537 23.5896 64.1327 24.888C64.4042 25.3051 64.5843 25.7727 64.6617 26.2614C64.7196 26.7408 64.7485 27.5683 64.748 28.7441C64.748 29.9952 64.7035 30.8679 64.6143 31.3627C64.5775 31.5927 64.5138 31.8178 64.4242 32.0336C64.3272 32.2385 64.2191 32.4384 64.1003 32.6321C63.7525 33.1909 63.2693 33.6569 62.6931 33.9892C62.098 34.3728 61.3685 34.5643 60.5044 34.5639H56.5922L56.5918 22.9243ZM58.3357 32.9042H60.4246C61.4055 32.9042 62.1174 32.5656 62.5604 31.8883C62.7557 31.6378 62.8797 31.321 62.9324 30.9375C62.9798 30.5589 63.0035 29.8496 63.0035 28.8096C63.0035 27.7961 62.9798 27.0706 62.9324 26.6332C62.8691 26.196 62.7188 25.8412 62.4817 25.5693C61.9958 24.8921 61.3102 24.5642 60.4246 24.5853H58.3357V32.9042Z" fill="#F3C37A"/>
<path d="M72.4795 22.9243H79.8386V24.5842H74.2249V27.9148H79.0182V29.4778H74.2249V32.9042H79.8386V34.5639H72.4795V22.9243Z" fill="#DD7E6F"/>
<path d="M12.0928 45.909C6.17056 45.909 1.35156 41.2002 1.35156 35.4127V22.0755C1.35156 16.2879 6.17003 11.5791 12.0928 11.5791C18.0156 11.5791 22.8342 16.2879 22.8342 22.0755V35.4127C22.8342 41.2002 18.0156 45.909 12.0928 45.909Z" fill="#F6F6F6"/>
<path d="M21.5079 35.4111C21.5079 40.4036 17.348 44.4517 12.2165 44.4517C7.08495 44.4517 2.92285 40.4036 2.92285 35.4111V22.0739C2.92285 17.0814 7.0828 13.0339 12.2143 13.0339C17.3458 13.0339 21.5058 17.0814 21.5058 22.0739L21.5079 35.4111Z" fill="#007518"/>
<path d="M19.5245 35.3625H16.232L15.2788 32.5628H9.53895L8.56307 35.3625H5.27051L11.1485 19.5483H13.6222L19.5245 35.3625ZM14.4411 29.9654L12.4666 24.2128L10.4263 29.9654H14.4411Z" fill="#F6F6F6"/>
</svg>
